<mxfile host="app.diagrams.net" modified="2020-11-02T02:35:15.881Z" agent="5.0 (Windows NT 10.0; Win64; x64) AppleWebKit/537.36 (KHTML, like Gecko) Chrome/86.0.4240.111 Safari/537.36" etag="Z87kY-KkPWLnDB-tmsi_" version="13.8.8" type="github">
  <diagram id="E_aukMVfuDgfOdsIBmeU" name="PÃ¡gina-1">
    <mxGraphModel dx="782" dy="738" grid="1" gridSize="10" guides="1" tooltips="1" connect="1" arrows="1" fold="1" page="1" pageScale="1" pageWidth="827" pageHeight="1169" background="#EEEEEE" math="0" shadow="0">
      <root>
        <mxCell id="0" />
        <mxCell id="1" parent="0" />
        <mxCell id="BXOqrFUfiQneU6GV7oRW-67" value="Extends" style="endArrow=block;endSize=16;endFill=0;html=1;sketch=1;strokeColor=#182E3E;fontColor=#1A1A1A;labelBackgroundColor=#EEEEEE;" parent="1" source="BXOqrFUfiQneU6GV7oRW-63" target="BXOqrFUfiQneU6GV7oRW-35" edge="1">
          <mxGeometry width="160" relative="1" as="geometry">
            <mxPoint x="679.0287769784172" y="956.9999999999999" as="sourcePoint" />
            <mxPoint x="720.9712230215828" y="904" as="targetPoint" />
          </mxGeometry>
        </mxCell>
        <mxCell id="BXOqrFUfiQneU6GV7oRW-68" value="Extends" style="endArrow=block;endSize=16;endFill=0;html=1;sketch=1;strokeColor=#182E3E;fontColor=#1A1A1A;labelBackgroundColor=#EEEEEE;exitX=0.406;exitY=0.017;exitDx=0;exitDy=0;exitPerimeter=0;" parent="1" source="BXOqrFUfiQneU6GV7oRW-59" target="BXOqrFUfiQneU6GV7oRW-35" edge="1">
          <mxGeometry width="160" relative="1" as="geometry">
            <mxPoint x="705.1966292134832" y="967" as="sourcePoint" />
            <mxPoint x="751.5449438202247" y="900.9999999999998" as="targetPoint" />
          </mxGeometry>
        </mxCell>
        <mxCell id="BXOqrFUfiQneU6GV7oRW-6" value="PuntoDeVenta" style="swimlane;fontStyle=1;align=center;verticalAlign=top;childLayout=stackLayout;horizontal=1;startSize=26;horizontalStack=0;resizeParent=1;resizeParentMax=0;resizeLast=0;collapsible=1;marginBottom=0;sketch=1;fillColor=#F5AB50;strokeColor=#909090;fontColor=#1A1A1A;rounded=1;" parent="1" vertex="1">
          <mxGeometry x="360" y="50" width="210" height="60" as="geometry" />
        </mxCell>
        <mxCell id="BXOqrFUfiQneU6GV7oRW-8" value="" style="line;strokeWidth=1;fillColor=none;align=left;verticalAlign=middle;spacingTop=-1;spacingLeft=3;spacingRight=3;rotatable=0;labelPosition=right;points=[];portConstraint=eastwest;sketch=1;strokeColor=#909090;fontColor=#1A1A1A;labelBackgroundColor=#EEEEEE;rounded=1;" parent="BXOqrFUfiQneU6GV7oRW-6" vertex="1">
          <mxGeometry y="26" width="210" height="8" as="geometry" />
        </mxCell>
        <mxCell id="va-4sIyZaIfhNAm-WH2L-4" value="+ registrarCompra(Compra):" style="text;strokeColor=none;fillColor=none;align=left;verticalAlign=top;spacingLeft=4;spacingRight=4;overflow=hidden;rotatable=0;points=[[0,0.5],[1,0.5]];portConstraint=eastwest;sketch=1;fontColor=#1A1A1A;rounded=1;" parent="BXOqrFUfiQneU6GV7oRW-6" vertex="1">
          <mxGeometry y="34" width="210" height="26" as="geometry" />
        </mxCell>
        <mxCell id="6_5IAaXv43K1pciwiyLA-1" style="edgeStyle=orthogonalEdgeStyle;rounded=1;sketch=1;orthogonalLoop=1;jettySize=auto;html=1;strokeColor=#182E3E;fontColor=#1A1A1A;" parent="1" source="BXOqrFUfiQneU6GV7oRW-6" target="BXOqrFUfiQneU6GV7oRW-2" edge="1">
          <mxGeometry relative="1" as="geometry">
            <mxPoint x="540" y="89" as="sourcePoint" />
          </mxGeometry>
        </mxCell>
        <mxCell id="6_5IAaXv43K1pciwiyLA-12" style="edgeStyle=orthogonalEdgeStyle;rounded=1;sketch=1;orthogonalLoop=1;jettySize=auto;html=1;strokeColor=#182E3E;fontColor=#1A1A1A;" parent="1" source="BXOqrFUfiQneU6GV7oRW-2" target="6_5IAaXv43K1pciwiyLA-7" edge="1">
          <mxGeometry relative="1" as="geometry" />
        </mxCell>
        <mxCell id="6_5IAaXv43K1pciwiyLA-2" value="zona" style="text;html=1;align=center;verticalAlign=middle;resizable=0;points=[];autosize=1;fontColor=#1A1A1A;" parent="1" vertex="1">
          <mxGeometry x="615" y="60" width="40" height="20" as="geometry" />
        </mxCell>
        <mxCell id="6_5IAaXv43K1pciwiyLA-3" value="1" style="text;html=1;align=center;verticalAlign=middle;resizable=0;points=[];autosize=1;fontColor=#1A1A1A;" parent="1" vertex="1">
          <mxGeometry x="575" y="80" width="20" height="20" as="geometry" />
        </mxCell>
        <mxCell id="6_5IAaXv43K1pciwiyLA-4" value="1" style="text;html=1;align=center;verticalAlign=middle;resizable=0;points=[];autosize=1;fontColor=#1A1A1A;" parent="1" vertex="1">
          <mxGeometry x="685" y="80" width="20" height="20" as="geometry" />
        </mxCell>
        <mxCell id="6_5IAaXv43K1pciwiyLA-6" value="inspectorDesignado" style="text;html=1;align=center;verticalAlign=middle;resizable=0;points=[];autosize=1;fontColor=#1A1A1A;" parent="1" vertex="1">
          <mxGeometry x="900" y="60" width="120" height="20" as="geometry" />
        </mxCell>
        <mxCell id="6_5IAaXv43K1pciwiyLA-13" value="1" style="text;html=1;align=center;verticalAlign=middle;resizable=0;points=[];autosize=1;fontColor=#1A1A1A;" parent="1" vertex="1">
          <mxGeometry x="865" y="80" width="20" height="20" as="geometry" />
        </mxCell>
        <mxCell id="6_5IAaXv43K1pciwiyLA-14" value="1" style="text;html=1;align=center;verticalAlign=middle;resizable=0;points=[];autosize=1;fontColor=#1A1A1A;" parent="1" vertex="1">
          <mxGeometry x="1020" y="80" width="20" height="20" as="geometry" />
        </mxCell>
        <mxCell id="6_5IAaXv43K1pciwiyLA-15" style="edgeStyle=orthogonalEdgeStyle;rounded=1;sketch=1;orthogonalLoop=1;jettySize=auto;html=1;entryX=0;entryY=0.25;entryDx=0;entryDy=0;strokeColor=#182E3E;fontColor=#1A1A1A;" parent="1" source="BXOqrFUfiQneU6GV7oRW-14" target="BXOqrFUfiQneU6GV7oRW-6" edge="1">
          <mxGeometry relative="1" as="geometry">
            <Array as="points">
              <mxPoint x="315" y="170" />
              <mxPoint x="315" y="65" />
            </Array>
          </mxGeometry>
        </mxCell>
        <mxCell id="BXOqrFUfiQneU6GV7oRW-14" value="SEM" style="swimlane;fontStyle=1;align=center;verticalAlign=top;childLayout=stackLayout;horizontal=1;startSize=26;horizontalStack=0;resizeParent=1;resizeParentMax=0;resizeLast=0;collapsible=1;marginBottom=0;sketch=1;fillColor=#F5AB50;strokeColor=#909090;fontColor=#1A1A1A;rounded=1;" parent="1" vertex="1">
          <mxGeometry x="20" y="140" width="250" height="286" as="geometry" />
        </mxCell>
        <mxCell id="BXOqrFUfiQneU6GV7oRW-15" value="+ comienzoFranjaHoraria: LocalTime" style="text;strokeColor=none;fillColor=none;align=left;verticalAlign=top;spacingLeft=4;spacingRight=4;overflow=hidden;rotatable=0;points=[[0,0.5],[1,0.5]];portConstraint=eastwest;sketch=1;fontColor=#1A1A1A;rounded=1;" parent="BXOqrFUfiQneU6GV7oRW-14" vertex="1">
          <mxGeometry y="26" width="250" height="26" as="geometry" />
        </mxCell>
        <mxCell id="va-4sIyZaIfhNAm-WH2L-1" value="+ finFranjaHoraria: LocalTime" style="text;strokeColor=none;fillColor=none;align=left;verticalAlign=top;spacingLeft=4;spacingRight=4;overflow=hidden;rotatable=0;points=[[0,0.5],[1,0.5]];portConstraint=eastwest;sketch=1;fontColor=#1A1A1A;rounded=1;" parent="BXOqrFUfiQneU6GV7oRW-14" vertex="1">
          <mxGeometry y="52" width="250" height="26" as="geometry" />
        </mxCell>
        <mxCell id="va-4sIyZaIfhNAm-WH2L-2" value="+ precioPorHora: Double" style="text;strokeColor=none;fillColor=none;align=left;verticalAlign=top;spacingLeft=4;spacingRight=4;overflow=hidden;rotatable=0;points=[[0,0.5],[1,0.5]];portConstraint=eastwest;sketch=1;fontColor=#1A1A1A;rounded=1;" parent="BXOqrFUfiQneU6GV7oRW-14" vertex="1">
          <mxGeometry y="78" width="250" height="26" as="geometry" />
        </mxCell>
        <mxCell id="BXOqrFUfiQneU6GV7oRW-16" value="" style="line;strokeWidth=1;fillColor=none;align=left;verticalAlign=middle;spacingTop=-1;spacingLeft=3;spacingRight=3;rotatable=0;labelPosition=right;points=[];portConstraint=eastwest;sketch=1;strokeColor=#909090;fontColor=#1A1A1A;labelBackgroundColor=#EEEEEE;rounded=1;" parent="BXOqrFUfiQneU6GV7oRW-14" vertex="1">
          <mxGeometry y="104" width="250" height="8" as="geometry" />
        </mxCell>
        <mxCell id="BXOqrFUfiQneU6GV7oRW-17" value="+ habilitarEstacionamiento(Estacionamiento):" style="text;strokeColor=none;fillColor=none;align=left;verticalAlign=top;spacingLeft=4;spacingRight=4;overflow=hidden;rotatable=0;points=[[0,0.5],[1,0.5]];portConstraint=eastwest;sketch=1;fontColor=#1A1A1A;rounded=1;" parent="BXOqrFUfiQneU6GV7oRW-14" vertex="1">
          <mxGeometry y="112" width="250" height="26" as="geometry" />
        </mxCell>
        <mxCell id="6_5IAaXv43K1pciwiyLA-22" value="+ finalizarEstacionamiento&#xa;(Estacionamiento):" style="text;strokeColor=none;fillColor=none;align=left;verticalAlign=top;spacingLeft=4;spacingRight=4;overflow=hidden;rotatable=0;points=[[0,0.5],[1,0.5]];portConstraint=eastwest;rounded=1;sketch=1;fontColor=#1A1A1A;" parent="BXOqrFUfiQneU6GV7oRW-14" vertex="1">
          <mxGeometry y="138" width="250" height="42" as="geometry" />
        </mxCell>
        <mxCell id="6_5IAaXv43K1pciwiyLA-31" value="+ tieneEstacionamientoVigente(String):&#xa;Boolean" style="text;strokeColor=none;fillColor=none;align=left;verticalAlign=top;spacingLeft=4;spacingRight=4;overflow=hidden;rotatable=0;points=[[0,0.5],[1,0.5]];portConstraint=eastwest;rounded=1;sketch=1;fontColor=#1A1A1A;" parent="BXOqrFUfiQneU6GV7oRW-14" vertex="1">
          <mxGeometry y="180" width="250" height="40" as="geometry" />
        </mxCell>
        <mxCell id="6_5IAaXv43K1pciwiyLA-32" value="+ registrarInfraccion(String, LocalDate,&#xa;LocalTime, Inspector, ZonaEstacionamiento):" style="text;strokeColor=none;fillColor=none;align=left;verticalAlign=top;spacingLeft=4;spacingRight=4;overflow=hidden;rotatable=0;points=[[0,0.5],[1,0.5]];portConstraint=eastwest;rounded=1;sketch=1;fontColor=#1A1A1A;" parent="BXOqrFUfiQneU6GV7oRW-14" vertex="1">
          <mxGeometry y="220" width="250" height="40" as="geometry" />
        </mxCell>
        <mxCell id="va-4sIyZaIfhNAm-WH2L-11" value="+ finalizarTodosLosEstacionamientos():" style="text;strokeColor=none;fillColor=none;align=left;verticalAlign=top;spacingLeft=4;spacingRight=4;overflow=hidden;rotatable=0;points=[[0,0.5],[1,0.5]];portConstraint=eastwest;sketch=1;fontColor=#1A1A1A;rounded=1;" parent="BXOqrFUfiQneU6GV7oRW-14" vertex="1">
          <mxGeometry y="260" width="250" height="26" as="geometry" />
        </mxCell>
        <mxCell id="6_5IAaXv43K1pciwiyLA-16" value="puntosDeVenta" style="text;html=1;align=center;verticalAlign=middle;resizable=0;points=[];autosize=1;fontColor=#1A1A1A;rotation=90;" parent="1" vertex="1">
          <mxGeometry x="250" y="100" width="100" height="20" as="geometry" />
        </mxCell>
        <mxCell id="6_5IAaXv43K1pciwiyLA-17" value="1" style="text;html=1;align=center;verticalAlign=middle;resizable=0;points=[];autosize=1;fontColor=#1A1A1A;" parent="1" vertex="1">
          <mxGeometry x="270" y="150" width="20" height="20" as="geometry" />
        </mxCell>
        <mxCell id="6_5IAaXv43K1pciwiyLA-18" value="*" style="text;html=1;align=center;verticalAlign=middle;resizable=0;points=[];autosize=1;fontColor=#1A1A1A;" parent="1" vertex="1">
          <mxGeometry x="340" y="46" width="20" height="20" as="geometry" />
        </mxCell>
        <mxCell id="BXOqrFUfiQneU6GV7oRW-2" value="ZonaEstacionamiento" style="swimlane;fontStyle=1;align=center;verticalAlign=top;childLayout=stackLayout;horizontal=1;startSize=26;horizontalStack=0;resizeParent=1;resizeParentMax=0;resizeLast=0;collapsible=1;marginBottom=0;sketch=1;fillColor=#F5AB50;strokeColor=#909090;fontColor=#1A1A1A;rounded=1;" parent="1" vertex="1">
          <mxGeometry x="705" y="50" width="160" height="60" as="geometry" />
        </mxCell>
        <mxCell id="BXOqrFUfiQneU6GV7oRW-3" value="+ nombre: String" style="text;strokeColor=none;fillColor=none;align=left;verticalAlign=top;spacingLeft=4;spacingRight=4;overflow=hidden;rotatable=0;points=[[0,0.5],[1,0.5]];portConstraint=eastwest;sketch=1;fontColor=#1A1A1A;rounded=1;" parent="BXOqrFUfiQneU6GV7oRW-2" vertex="1">
          <mxGeometry y="26" width="160" height="26" as="geometry" />
        </mxCell>
        <mxCell id="BXOqrFUfiQneU6GV7oRW-4" value="" style="line;strokeWidth=1;fillColor=none;align=left;verticalAlign=middle;spacingTop=-1;spacingLeft=3;spacingRight=3;rotatable=0;labelPosition=right;points=[];portConstraint=eastwest;sketch=1;strokeColor=#909090;fontColor=#1A1A1A;labelBackgroundColor=#EEEEEE;rounded=1;" parent="BXOqrFUfiQneU6GV7oRW-2" vertex="1">
          <mxGeometry y="52" width="160" height="8" as="geometry" />
        </mxCell>
        <mxCell id="6_5IAaXv43K1pciwiyLA-7" value="Inspector" style="swimlane;fontStyle=1;align=center;verticalAlign=top;childLayout=stackLayout;horizontal=1;startSize=26;horizontalStack=0;resizeParent=1;resizeParentMax=0;resizeLast=0;collapsible=1;marginBottom=0;rounded=1;sketch=1;strokeColor=#909090;fillColor=#F5AB50;fontColor=#1A1A1A;" parent="1" vertex="1">
          <mxGeometry x="1050" y="32" width="240" height="96" as="geometry" />
        </mxCell>
        <mxCell id="6_5IAaXv43K1pciwiyLA-9" value="" style="line;strokeWidth=1;fillColor=none;align=left;verticalAlign=middle;spacingTop=-1;spacingLeft=3;spacingRight=3;rotatable=0;labelPosition=right;points=[];portConstraint=eastwest;" parent="6_5IAaXv43K1pciwiyLA-7" vertex="1">
          <mxGeometry y="26" width="240" height="8" as="geometry" />
        </mxCell>
        <mxCell id="6_5IAaXv43K1pciwiyLA-25" value="+ consultarEstacionamientoVigente(String):&#xa;Boolean" style="text;strokeColor=none;fillColor=none;align=left;verticalAlign=top;spacingLeft=4;spacingRight=4;overflow=hidden;rotatable=0;points=[[0,0.5],[1,0.5]];portConstraint=eastwest;rounded=1;sketch=1;fontColor=#1A1A1A;" parent="6_5IAaXv43K1pciwiyLA-7" vertex="1">
          <mxGeometry y="34" width="240" height="36" as="geometry" />
        </mxCell>
        <mxCell id="6_5IAaXv43K1pciwiyLA-26" value="+ altaDeInfraccion(String):" style="text;strokeColor=none;fillColor=none;align=left;verticalAlign=top;spacingLeft=4;spacingRight=4;overflow=hidden;rotatable=0;points=[[0,0.5],[1,0.5]];portConstraint=eastwest;rounded=1;sketch=1;fontColor=#1A1A1A;" parent="6_5IAaXv43K1pciwiyLA-7" vertex="1">
          <mxGeometry y="70" width="240" height="26" as="geometry" />
        </mxCell>
        <mxCell id="2aV7kIH-iNfKvuTEeeUl-22" style="edgeStyle=orthogonalEdgeStyle;rounded=0;orthogonalLoop=1;jettySize=auto;html=1;" parent="1" source="2aV7kIH-iNfKvuTEeeUl-2" target="BXOqrFUfiQneU6GV7oRW-6" edge="1">
          <mxGeometry relative="1" as="geometry" />
        </mxCell>
        <mxCell id="2aV7kIH-iNfKvuTEeeUl-14" value="Extends" style="endArrow=block;endSize=16;endFill=0;html=1;" parent="1" source="2aV7kIH-iNfKvuTEeeUl-10" target="2aV7kIH-iNfKvuTEeeUl-2" edge="1">
          <mxGeometry width="160" relative="1" as="geometry">
            <mxPoint x="475.4000000000001" y="408" as="sourcePoint" />
            <mxPoint x="625" y="598" as="targetPoint" />
          </mxGeometry>
        </mxCell>
        <mxCell id="2aV7kIH-iNfKvuTEeeUl-15" value="Extends" style="endArrow=block;endSize=16;endFill=0;html=1;" parent="1" source="2aV7kIH-iNfKvuTEeeUl-6" target="2aV7kIH-iNfKvuTEeeUl-2" edge="1">
          <mxGeometry width="160" relative="1" as="geometry">
            <mxPoint x="491.1071428571429" y="428" as="sourcePoint" />
            <mxPoint x="523.8928571428571" y="374" as="targetPoint" />
          </mxGeometry>
        </mxCell>
        <mxCell id="2aV7kIH-iNfKvuTEeeUl-16" style="edgeStyle=orthogonalEdgeStyle;rounded=0;orthogonalLoop=1;jettySize=auto;html=1;" parent="1" source="6_5IAaXv43K1pciwiyLA-37" target="2aV7kIH-iNfKvuTEeeUl-6" edge="1">
          <mxGeometry relative="1" as="geometry" />
        </mxCell>
        <mxCell id="2aV7kIH-iNfKvuTEeeUl-17" value="compraReferencia" style="text;html=1;align=center;verticalAlign=middle;resizable=0;points=[];autosize=1;rotation=-90;" parent="1" vertex="1">
          <mxGeometry x="525" y="584" width="110" height="20" as="geometry" />
        </mxCell>
        <mxCell id="2aV7kIH-iNfKvuTEeeUl-18" value="1" style="text;html=1;align=center;verticalAlign=middle;resizable=0;points=[];autosize=1;" parent="1" vertex="1">
          <mxGeometry x="570" y="738" width="20" height="20" as="geometry" />
        </mxCell>
        <mxCell id="2aV7kIH-iNfKvuTEeeUl-19" value="1" style="text;html=1;align=center;verticalAlign=middle;resizable=0;points=[];autosize=1;" parent="1" vertex="1">
          <mxGeometry x="570" y="456" width="20" height="20" as="geometry" />
        </mxCell>
        <mxCell id="2aV7kIH-iNfKvuTEeeUl-23" value="puntoDeVenta" style="text;html=1;align=center;verticalAlign=middle;resizable=0;points=[];autosize=1;rotation=90;" parent="1" vertex="1">
          <mxGeometry x="435" y="170" width="90" height="20" as="geometry" />
        </mxCell>
        <mxCell id="BXOqrFUfiQneU6GV7oRW-35" value="Estacionamiento" style="swimlane;fontStyle=3;align=center;verticalAlign=top;childLayout=stackLayout;horizontal=1;startSize=26;horizontalStack=0;resizeParent=1;resizeParentMax=0;resizeLast=0;collapsible=1;marginBottom=0;sketch=1;fillColor=#F5AB50;strokeColor=#909090;fontColor=#1A1A1A;rounded=1;" parent="1" vertex="1">
          <mxGeometry x="705" y="498" width="160" height="138" as="geometry" />
        </mxCell>
        <mxCell id="BXOqrFUfiQneU6GV7oRW-36" value="+ automovil: String" style="text;strokeColor=none;fillColor=none;align=left;verticalAlign=top;spacingLeft=4;spacingRight=4;overflow=hidden;rotatable=0;points=[[0,0.5],[1,0.5]];portConstraint=eastwest;sketch=1;fontColor=#1A1A1A;rounded=1;" parent="BXOqrFUfiQneU6GV7oRW-35" vertex="1">
          <mxGeometry y="26" width="160" height="26" as="geometry" />
        </mxCell>
        <mxCell id="BXOqrFUfiQneU6GV7oRW-56" value="+ horaInicio: LocalTime" style="text;strokeColor=none;fillColor=none;align=left;verticalAlign=top;spacingLeft=4;spacingRight=4;overflow=hidden;rotatable=0;points=[[0,0.5],[1,0.5]];portConstraint=eastwest;fontStyle=0;sketch=1;fontColor=#1A1A1A;rounded=1;" parent="BXOqrFUfiQneU6GV7oRW-35" vertex="1">
          <mxGeometry y="52" width="160" height="26" as="geometry" />
        </mxCell>
        <mxCell id="BXOqrFUfiQneU6GV7oRW-57" value="+ horaFin: LocalTime" style="text;strokeColor=none;fillColor=none;align=left;verticalAlign=top;spacingLeft=4;spacingRight=4;overflow=hidden;rotatable=0;points=[[0,0.5],[1,0.5]];portConstraint=eastwest;fontStyle=0;sketch=1;fontColor=#1A1A1A;rounded=1;" parent="BXOqrFUfiQneU6GV7oRW-35" vertex="1">
          <mxGeometry y="78" width="160" height="26" as="geometry" />
        </mxCell>
        <mxCell id="BXOqrFUfiQneU6GV7oRW-37" value="" style="line;strokeWidth=1;fillColor=none;align=left;verticalAlign=middle;spacingTop=-1;spacingLeft=3;spacingRight=3;rotatable=0;labelPosition=right;points=[];portConstraint=eastwest;sketch=1;strokeColor=#909090;fontColor=#1A1A1A;labelBackgroundColor=#EEEEEE;rounded=1;" parent="BXOqrFUfiQneU6GV7oRW-35" vertex="1">
          <mxGeometry y="104" width="160" height="8" as="geometry" />
        </mxCell>
        <mxCell id="BXOqrFUfiQneU6GV7oRW-58" value="+ estaVigente(): Boolean" style="text;strokeColor=none;fillColor=none;align=left;verticalAlign=top;spacingLeft=4;spacingRight=4;overflow=hidden;rotatable=0;points=[[0,0.5],[1,0.5]];portConstraint=eastwest;fontStyle=2;sketch=1;fontColor=#1A1A1A;rounded=1;" parent="BXOqrFUfiQneU6GV7oRW-35" vertex="1">
          <mxGeometry y="112" width="160" height="26" as="geometry" />
        </mxCell>
        <mxCell id="BXOqrFUfiQneU6GV7oRW-63" value="EstViaApp" style="swimlane;fontStyle=1;align=center;verticalAlign=top;childLayout=stackLayout;horizontal=1;startSize=26;horizontalStack=0;resizeParent=1;resizeParentMax=0;resizeLast=0;collapsible=1;marginBottom=0;sketch=1;fillColor=#F5AB50;strokeColor=#909090;fontColor=#1A1A1A;rounded=1;" parent="1" vertex="1">
          <mxGeometry x="815" y="718" width="160" height="86" as="geometry" />
        </mxCell>
        <mxCell id="BXOqrFUfiQneU6GV7oRW-45" value="+ celular: String" style="text;strokeColor=none;fillColor=none;align=left;verticalAlign=top;spacingLeft=4;spacingRight=4;overflow=hidden;rotatable=0;points=[[0,0.5],[1,0.5]];portConstraint=eastwest;sketch=1;fontColor=#1A1A1A;rounded=1;" parent="BXOqrFUfiQneU6GV7oRW-63" vertex="1">
          <mxGeometry y="26" width="160" height="26" as="geometry" />
        </mxCell>
        <mxCell id="BXOqrFUfiQneU6GV7oRW-65" value="" style="line;strokeWidth=1;fillColor=none;align=left;verticalAlign=middle;spacingTop=-1;spacingLeft=3;spacingRight=3;rotatable=0;labelPosition=right;points=[];portConstraint=eastwest;sketch=1;strokeColor=#909090;fontColor=#1A1A1A;labelBackgroundColor=#EEEEEE;rounded=1;" parent="BXOqrFUfiQneU6GV7oRW-63" vertex="1">
          <mxGeometry y="52" width="160" height="8" as="geometry" />
        </mxCell>
        <mxCell id="BXOqrFUfiQneU6GV7oRW-66" value="+ estaVigente(): Boolean" style="text;strokeColor=none;fillColor=none;align=left;verticalAlign=top;spacingLeft=4;spacingRight=4;overflow=hidden;rotatable=0;points=[[0,0.5],[1,0.5]];portConstraint=eastwest;sketch=1;fontColor=#1A1A1A;rounded=1;" parent="BXOqrFUfiQneU6GV7oRW-63" vertex="1">
          <mxGeometry y="60" width="160" height="26" as="geometry" />
        </mxCell>
        <mxCell id="BXOqrFUfiQneU6GV7oRW-59" value="EstCompraPuntual" style="swimlane;fontStyle=1;align=center;verticalAlign=top;childLayout=stackLayout;horizontal=1;startSize=26;horizontalStack=0;resizeParent=1;resizeParentMax=0;resizeLast=0;collapsible=1;marginBottom=0;sketch=1;fillColor=#F5AB50;strokeColor=#909090;fontColor=#1A1A1A;rounded=1;" parent="1" vertex="1">
          <mxGeometry x="615" y="718" width="160" height="86" as="geometry" />
        </mxCell>
        <mxCell id="6_5IAaXv43K1pciwiyLA-37" value="+ cantHoras: Integer" style="text;strokeColor=none;fillColor=none;align=left;verticalAlign=top;spacingLeft=4;spacingRight=4;overflow=hidden;rotatable=0;points=[[0,0.5],[1,0.5]];portConstraint=eastwest;sketch=1;fontColor=#1A1A1A;rounded=1;" parent="BXOqrFUfiQneU6GV7oRW-59" vertex="1">
          <mxGeometry y="26" width="160" height="26" as="geometry" />
        </mxCell>
        <mxCell id="BXOqrFUfiQneU6GV7oRW-61" value="" style="line;strokeWidth=1;fillColor=none;align=left;verticalAlign=middle;spacingTop=-1;spacingLeft=3;spacingRight=3;rotatable=0;labelPosition=right;points=[];portConstraint=eastwest;sketch=1;strokeColor=#909090;fontColor=#1A1A1A;labelBackgroundColor=#EEEEEE;rounded=1;" parent="BXOqrFUfiQneU6GV7oRW-59" vertex="1">
          <mxGeometry y="52" width="160" height="8" as="geometry" />
        </mxCell>
        <mxCell id="BXOqrFUfiQneU6GV7oRW-62" value="+ estaVigente(): Boolean" style="text;strokeColor=none;fillColor=none;align=left;verticalAlign=top;spacingLeft=4;spacingRight=4;overflow=hidden;rotatable=0;points=[[0,0.5],[1,0.5]];portConstraint=eastwest;sketch=1;fontColor=#1A1A1A;rounded=1;" parent="BXOqrFUfiQneU6GV7oRW-59" vertex="1">
          <mxGeometry y="60" width="160" height="26" as="geometry" />
        </mxCell>
        <mxCell id="2aV7kIH-iNfKvuTEeeUl-2" value="Compra" style="swimlane;fontStyle=3;align=center;verticalAlign=top;childLayout=stackLayout;horizontal=1;startSize=26;horizontalStack=0;resizeParent=1;resizeParentMax=0;resizeLast=0;collapsible=1;marginBottom=0;" parent="1" vertex="1">
          <mxGeometry x="385" y="240" width="160" height="86" as="geometry" />
        </mxCell>
        <mxCell id="2aV7kIH-iNfKvuTEeeUl-3" value="+ nroControl: Integer" style="text;strokeColor=none;fillColor=none;align=left;verticalAlign=top;spacingLeft=4;spacingRight=4;overflow=hidden;rotatable=0;points=[[0,0.5],[1,0.5]];portConstraint=eastwest;" parent="2aV7kIH-iNfKvuTEeeUl-2" vertex="1">
          <mxGeometry y="26" width="160" height="26" as="geometry" />
        </mxCell>
        <mxCell id="2aV7kIH-iNfKvuTEeeUl-21" value="+ fechaYHora: LocalDate" style="text;strokeColor=none;fillColor=none;align=left;verticalAlign=top;spacingLeft=4;spacingRight=4;overflow=hidden;rotatable=0;points=[[0,0.5],[1,0.5]];portConstraint=eastwest;" parent="2aV7kIH-iNfKvuTEeeUl-2" vertex="1">
          <mxGeometry y="52" width="160" height="26" as="geometry" />
        </mxCell>
        <mxCell id="2aV7kIH-iNfKvuTEeeUl-4" value="" style="line;strokeWidth=1;fillColor=none;align=left;verticalAlign=middle;spacingTop=-1;spacingLeft=3;spacingRight=3;rotatable=0;labelPosition=right;points=[];portConstraint=eastwest;" parent="2aV7kIH-iNfKvuTEeeUl-2" vertex="1">
          <mxGeometry y="78" width="160" height="8" as="geometry" />
        </mxCell>
        <mxCell id="2aV7kIH-iNfKvuTEeeUl-10" value="RecargaCelular" style="swimlane;fontStyle=1;align=center;verticalAlign=top;childLayout=stackLayout;horizontal=1;startSize=26;horizontalStack=0;resizeParent=1;resizeParentMax=0;resizeLast=0;collapsible=1;marginBottom=0;" parent="1" vertex="1">
          <mxGeometry x="300" y="370" width="160" height="60" as="geometry" />
        </mxCell>
        <mxCell id="2aV7kIH-iNfKvuTEeeUl-11" value="+ monto: Double" style="text;strokeColor=none;fillColor=none;align=left;verticalAlign=top;spacingLeft=4;spacingRight=4;overflow=hidden;rotatable=0;points=[[0,0.5],[1,0.5]];portConstraint=eastwest;" parent="2aV7kIH-iNfKvuTEeeUl-10" vertex="1">
          <mxGeometry y="26" width="160" height="26" as="geometry" />
        </mxCell>
        <mxCell id="2aV7kIH-iNfKvuTEeeUl-12" value="" style="line;strokeWidth=1;fillColor=none;align=left;verticalAlign=middle;spacingTop=-1;spacingLeft=3;spacingRight=3;rotatable=0;labelPosition=right;points=[];portConstraint=eastwest;" parent="2aV7kIH-iNfKvuTEeeUl-10" vertex="1">
          <mxGeometry y="52" width="160" height="8" as="geometry" />
        </mxCell>
        <mxCell id="2aV7kIH-iNfKvuTEeeUl-6" value="HorasPuntuales" style="swimlane;fontStyle=1;align=center;verticalAlign=top;childLayout=stackLayout;horizontal=1;startSize=26;horizontalStack=0;resizeParent=1;resizeParentMax=0;resizeLast=0;collapsible=1;marginBottom=0;" parent="1" vertex="1">
          <mxGeometry x="490" y="370" width="160" height="86" as="geometry" />
        </mxCell>
        <mxCell id="2aV7kIH-iNfKvuTEeeUl-7" value="+ cantHoras: Integer" style="text;strokeColor=none;fillColor=none;align=left;verticalAlign=top;spacingLeft=4;spacingRight=4;overflow=hidden;rotatable=0;points=[[0,0.5],[1,0.5]];portConstraint=eastwest;" parent="2aV7kIH-iNfKvuTEeeUl-6" vertex="1">
          <mxGeometry y="26" width="160" height="26" as="geometry" />
        </mxCell>
        <mxCell id="2aV7kIH-iNfKvuTEeeUl-27" value="+ patenteAuto: String" style="text;strokeColor=none;fillColor=none;align=left;verticalAlign=top;spacingLeft=4;spacingRight=4;overflow=hidden;rotatable=0;points=[[0,0.5],[1,0.5]];portConstraint=eastwest;" parent="2aV7kIH-iNfKvuTEeeUl-6" vertex="1">
          <mxGeometry y="52" width="160" height="26" as="geometry" />
        </mxCell>
        <mxCell id="2aV7kIH-iNfKvuTEeeUl-8" value="" style="line;strokeWidth=1;fillColor=none;align=left;verticalAlign=middle;spacingTop=-1;spacingLeft=3;spacingRight=3;rotatable=0;labelPosition=right;points=[];portConstraint=eastwest;" parent="2aV7kIH-iNfKvuTEeeUl-6" vertex="1">
          <mxGeometry y="78" width="160" height="8" as="geometry" />
        </mxCell>
        <mxCell id="2aV7kIH-iNfKvuTEeeUl-24" value="1" style="text;html=1;align=center;verticalAlign=middle;resizable=0;points=[];autosize=1;" parent="1" vertex="1">
          <mxGeometry x="440" y="110" width="20" height="20" as="geometry" />
        </mxCell>
        <mxCell id="2aV7kIH-iNfKvuTEeeUl-25" value="1" style="text;html=1;align=center;verticalAlign=middle;resizable=0;points=[];autosize=1;" parent="1" vertex="1">
          <mxGeometry x="440" y="220" width="20" height="20" as="geometry" />
        </mxCell>
        <mxCell id="2aV7kIH-iNfKvuTEeeUl-26" value="misc: agregar atributos especificos a las clases &quot;personas&quot; o &quot;lugares&quot;" style="text;html=1;align=center;verticalAlign=middle;resizable=0;points=[];autosize=1;" parent="1" vertex="1">
          <mxGeometry x="1050" y="140" width="390" height="20" as="geometry" />
        </mxCell>
        <mxCell id="BXOqrFUfiQneU6GV7oRW-86" value="AppCelular" style="swimlane;fontStyle=1;align=center;verticalAlign=top;childLayout=stackLayout;horizontal=1;startSize=26;horizontalStack=0;resizeParent=1;resizeParentMax=0;resizeLast=0;collapsible=1;marginBottom=0;sketch=1;fillColor=#F5AB50;strokeColor=#909090;fontColor=#1A1A1A;rounded=1;" parent="1" vertex="1">
          <mxGeometry x="50" y="476" width="210" height="190" as="geometry" />
        </mxCell>
        <mxCell id="BXOqrFUfiQneU6GV7oRW-70" value="+ numeroCel: String" style="text;strokeColor=none;fillColor=none;align=left;verticalAlign=top;spacingLeft=4;spacingRight=4;overflow=hidden;rotatable=0;points=[[0,0.5],[1,0.5]];portConstraint=eastwest;sketch=1;fontColor=#1A1A1A;rounded=1;" parent="BXOqrFUfiQneU6GV7oRW-86" vertex="1">
          <mxGeometry y="26" width="210" height="26" as="geometry" />
        </mxCell>
        <mxCell id="BXOqrFUfiQneU6GV7oRW-87" value="+ creditoDisponible: Double" style="text;strokeColor=none;fillColor=none;align=left;verticalAlign=top;spacingLeft=4;spacingRight=4;overflow=hidden;rotatable=0;points=[[0,0.5],[1,0.5]];portConstraint=eastwest;sketch=1;fontColor=#1A1A1A;rounded=1;" parent="BXOqrFUfiQneU6GV7oRW-86" vertex="1">
          <mxGeometry y="52" width="210" height="26" as="geometry" />
        </mxCell>
        <mxCell id="BXOqrFUfiQneU6GV7oRW-88" value="" style="line;strokeWidth=1;fillColor=none;align=left;verticalAlign=middle;spacingTop=-1;spacingLeft=3;spacingRight=3;rotatable=0;labelPosition=right;points=[];portConstraint=eastwest;sketch=1;strokeColor=#909090;fontColor=#1A1A1A;labelBackgroundColor=#EEEEEE;rounded=1;" parent="BXOqrFUfiQneU6GV7oRW-86" vertex="1">
          <mxGeometry y="78" width="210" height="8" as="geometry" />
        </mxCell>
        <mxCell id="BXOqrFUfiQneU6GV7oRW-72" value="+ cargarCredito(Double):" style="text;strokeColor=none;fillColor=none;align=left;verticalAlign=top;spacingLeft=4;spacingRight=4;overflow=hidden;rotatable=0;points=[[0,0.5],[1,0.5]];portConstraint=eastwest;sketch=1;fontColor=#1A1A1A;rounded=1;" parent="BXOqrFUfiQneU6GV7oRW-86" vertex="1">
          <mxGeometry y="86" width="210" height="26" as="geometry" />
        </mxCell>
        <mxCell id="6_5IAaXv43K1pciwiyLA-24" value="+ inicioDeEstacionamiento(): String" style="text;strokeColor=none;fillColor=none;align=left;verticalAlign=top;spacingLeft=4;spacingRight=4;overflow=hidden;rotatable=0;points=[[0,0.5],[1,0.5]];portConstraint=eastwest;rounded=1;sketch=1;fontColor=#1A1A1A;" parent="BXOqrFUfiQneU6GV7oRW-86" vertex="1">
          <mxGeometry y="112" width="210" height="26" as="geometry" />
        </mxCell>
        <mxCell id="6_5IAaXv43K1pciwiyLA-23" value="+ finDeEstacionamiento(): String" style="text;strokeColor=none;fillColor=none;align=left;verticalAlign=top;spacingLeft=4;spacingRight=4;overflow=hidden;rotatable=0;points=[[0,0.5],[1,0.5]];portConstraint=eastwest;rounded=1;sketch=1;fontColor=#1A1A1A;" parent="BXOqrFUfiQneU6GV7oRW-86" vertex="1">
          <mxGeometry y="138" width="210" height="26" as="geometry" />
        </mxCell>
        <mxCell id="2aV7kIH-iNfKvuTEeeUl-28" value="+ consultaDeSaldo(): String" style="text;strokeColor=none;fillColor=none;align=left;verticalAlign=top;spacingLeft=4;spacingRight=4;overflow=hidden;rotatable=0;points=[[0,0.5],[1,0.5]];portConstraint=eastwest;" parent="BXOqrFUfiQneU6GV7oRW-86" vertex="1">
          <mxGeometry y="164" width="210" height="26" as="geometry" />
        </mxCell>
      </root>
    </mxGraphModel>
  </diagram>
</mxfile>
